<?xml version="1.0" standalone="no"?><!DOCTYPE svg PUBLIC "-//W3C//DTD SVG 1.1//EN" "http://www.w3.org/Graphics/SVG/1.1/DTD/svg11.dtd"><svg t="1598080351942" class="icon" viewBox="0 0 1024 1024" version="1.1" xmlns="http://www.w3.org/2000/svg" p-id="1835" xmlns:xlink="http://www.w3.org/1999/xlink" width="200" height="200"><defs><style type="text/css"></style></defs><path d="M722.204 843.492h-551.68a70.144 70.144 0 0 1-69.973-69.917V400.896a70.144 70.144 0 0 1 69.973-69.945h551.68a70.144 70.144 0 0 1 69.917 69.973v372.623a70.144 70.144 0 0 1-69.917 69.945" fill="#FDDE80" p-id="1836"></path><path d="M710.315 341.703c22.613-7.339 38.2-29.099 36.067-52.793a143.616 143.616 0 0 0-6.542-32.142C700.36 135.14 510.72 87.723 316.274 150.869 121.799 214.016-3.783 363.804 35.698 485.461c3.413 10.525 7.993 20.452 13.596 29.81 12.231 20.423 37.604 28.871 60.217 21.533l600.804-195.1z" fill="#9796ED" p-id="1837"></path><path d="M281.031 123.676l11.236 34.617c4.977 15.332 21.617 23.78 36.92 18.802 15.332-4.978 23.809-21.59 18.83-36.92l-11.235-34.59a29.383 29.383 0 0 0-36.92-18.801c-15.36 4.95-23.809 21.59-18.83 36.892" fill="#7B78EB" p-id="1838"></path><path d="M444.16 714.07a139.748 139.748 0 0 0 138.297-119.553 17.493 17.493 0 0 0-17.124-20.195H322.987a17.493 17.493 0 0 0-17.124 20.195A139.776 139.776 0 0 0 444.16 714.07" fill="#FFAF66" p-id="1839"></path><path d="M704.796 680.903l-85.845-40.619s12.288 55.752 71.396 92.672c-0.086 0.74-0.285 1.423-0.37 2.19-12.715 94.55 38.2 179.4 113.692 189.554 75.492 10.127 146.973-58.31 159.687-152.86 12.687-94.52-38.2-179.4-113.72-189.525-60.018-8.079-117.42 33.65-144.84 98.588z" fill="#9796ED" p-id="1840"></path><path d="M856.064 682.012l-19.797 99.158a6.57 6.57 0 0 1-6.457 5.29h-17.778a6.6 6.6 0 0 1-6.542-7.537l14.478-99.13a6.542 6.542 0 0 1 6.485-5.66h23.154c4.181 0 7.282 3.812 6.457 7.88M833.166 818.09l-2.986 16.298a6.57 6.57 0 0 1-6.457 5.405h-20.964a6.6 6.6 0 0 1-6.485-7.652l2.645-16.27a6.6 6.6 0 0 1 6.485-5.547h21.277c4.124 0 7.253 3.727 6.485 7.766" fill="#C5C2FF" p-id="1841"></path></svg>