<?xml version="1.0" standalone="no"?><!DOCTYPE svg PUBLIC "-//W3C//DTD SVG 1.1//EN" "http://www.w3.org/Graphics/SVG/1.1/DTD/svg11.dtd"><svg t="1598080359905" class="icon" viewBox="0 0 1024 1024" version="1.1" xmlns="http://www.w3.org/2000/svg" p-id="2123" xmlns:xlink="http://www.w3.org/1999/xlink" width="200" height="200"><defs><style type="text/css"></style></defs><path d="M881.92 460.8a335.36 335.36 0 0 0-334.336-335.104h-73.216A335.616 335.616 0 0 0 139.776 460.8v313.6a18.688 18.688 0 0 0 18.432 18.688h41.984c13.568 46.336 37.888 80.384 88.576 80.384h98.304a37.376 37.376 0 0 0 37.376-36.864l1.28-284.672a36.864 36.864 0 0 0-37.12-37.12h-99.84a111.616 111.616 0 0 0-51.2 12.8V454.4a242.432 242.432 0 0 1 241.664-241.664h67.328A242.176 242.176 0 0 1 787.968 454.4v74.496a110.592 110.592 0 0 0-54.272-14.08h-99.84a36.864 36.864 0 0 0-37.12 37.12v284.672a37.376 37.376 0 0 0 37.376 36.864h98.304c51.2 0 75.008-34.048 88.576-80.384h41.984a18.688 18.688 0 0 0 18.432-18.688z" fill="#45C7DD" p-id="2124"></path><path d="M646.186 792.709l0.274-196.096q0.046-32.512 32.558-32.466l1.024 0.001q32.512 0.045 32.466 32.557l-0.274 196.096q-0.045 32.512-32.557 32.467l-1.024-0.002q-32.512-0.045-32.467-32.557zM307.268 792.735l0.274-196.096q0.045-32.512 32.557-32.467l1.024 0.002q32.512 0.045 32.467 32.557l-0.274 196.096q-0.045 32.512-32.557 32.466l-1.024-0.001q-32.512-0.045-32.467-32.557z" fill="#FF5C7A" p-id="2125"></path></svg>