<?xml version="1.0" standalone="no"?><!DOCTYPE svg PUBLIC "-//W3C//DTD SVG 1.1//EN" "http://www.w3.org/Graphics/SVG/1.1/DTD/svg11.dtd"><svg t="1598080379316" class="icon" viewBox="0 0 1024 1024" version="1.1" xmlns="http://www.w3.org/2000/svg" p-id="2834" xmlns:xlink="http://www.w3.org/1999/xlink" width="200" height="200"><defs><style type="text/css"></style></defs><path d="M153.6 256h716.8q25.6 0 25.6 25.6v512q0 25.6-25.6 25.6H153.6q-25.6 0-25.6-25.6v-512q0-25.6 25.6-25.6z" fill="#3DA9D3" p-id="2835"></path><path d="M153.6 256h153.6v563.2H153.6a25.6 25.6 0 0 1-25.6-25.6v-512a25.6 25.6 0 0 1 25.6-25.6z m716.8 0H716.8v563.2h153.6a25.6 25.6 0 0 0 25.6-25.6v-512a25.6 25.6 0 0 0-25.6-25.6z" fill="#7DD3E0" p-id="2836"></path><path d="M783.36 320h46.08q15.36 0 15.36 15.36v20.48q0 15.36-15.36 15.36h-46.08q-15.36 0-15.36-15.36v-20.48Q768 320 783.36 320zM783.36 448h46.08q15.36 0 15.36 15.36v20.48q0 15.36-15.36 15.36h-46.08q-15.36 0-15.36-15.36v-20.48Q768 448 783.36 448zM783.36 576h46.08q15.36 0 15.36 15.36v20.48q0 15.36-15.36 15.36h-46.08q-15.36 0-15.36-15.36v-20.48Q768 576 783.36 576zM783.36 704h46.08q15.36 0 15.36 15.36v20.48q0 15.36-15.36 15.36h-46.08q-15.36 0-15.36-15.36v-20.48Q768 704 783.36 704z" fill="#3DA9D3" p-id="2837"></path><path d="M576 180.736c8.78-2.611 15.898-1.92 21.35 2.074 5.479 3.993 11.008 9.83 16.64 17.459 5.607 7.654 12.544 16.256 20.762 25.856 8.243 9.574 19.456 18.509 33.69 26.777 12.236 7.68 22.963 12.954 32.204 15.77l25.959 7.86a146.846 146.846 0 0 1 23.654 9.266s17.741 9.984 25.523 20.48c8.116 10.906 14.874 19.661 16.615 30.976 1.715 11.341 1.613 21.914-0.461 31.693a72.73 72.73 0 0 1-9.574 24.576c-4.276 6.58-7.86 9.933-10.752 9.933-2.868 0.026-5.402-1.613-7.604-5.043-2.227-3.38-3.84-9.984-4.864-19.763-1.69-15.872-6.656-27.034-14.976-33.46-8.32-6.425-21.35-9.984-39.142-10.726a96.051 96.051 0 0 1-48.922-15.616 283.047 283.047 0 0 1-34.97-26.803c-8.882-7.373-15.794-9.549-20.889-6.298-4.992 3.226-7.577 8.115-7.731 14.746l-0.563 26.752-6.707 273.792-0.794 35.405c0.154 9.856-1.664 21.196-5.427 33.996-3.789 12.8-10.675 25.293-20.66 37.453-9.932 12.16-23.09 23.22-39.475 33.229s-36.582 17.357-60.595 22.067c-24.448 4.762-46.413 3.584-65.894-3.507-19.456-7.091-34.381-17.434-44.775-31.027-10.24-12.928-15.436-29.594-14.77-47.514 0.69-18.048 8.857-36.045 24.473-53.965s32.435-31.283 50.432-40.115a198.81 198.81 0 0 1 51.814-17.715 178.842 178.842 0 0 1 44.314-3.02c13.005 1.049 22.579 2.38 28.749 3.942 0 0 6.45-280.167 8.294-341.607 0.23-12.109 3.584-22.323 9.933-30.976 6.4-8.55 14.771-14.208 25.139-16.947z m160.922 288.18a12.8 12.8 0 0 1 0.358 2.969v40.96l41.728-6.912a12.8 12.8 0 0 1 14.9 12.595v15.002a12.8 12.8 0 0 1-10.702 12.646l-45.952 7.629 0.026 45.363a12.8 12.8 0 0 1-9.83 12.442l-15.36 3.66a12.8 12.8 0 0 1-15.77-12.441V560.64l-41.114 6.86a12.8 12.8 0 0 1-14.899-12.62v-15.002a12.8 12.8 0 0 1 10.701-12.646l45.312-7.552v-44.134a12.8 12.8 0 0 1 9.83-12.468l15.36-3.635a12.8 12.8 0 0 1 15.412 9.472z" fill="#FFD469" p-id="2838"></path><path d="M194.56 320h46.08Q256 320 256 335.36v20.48q0 15.36-15.36 15.36h-46.08q-15.36 0-15.36-15.36v-20.48q0-15.36 15.36-15.36zM194.56 448h46.08Q256 448 256 463.36v20.48q0 15.36-15.36 15.36h-46.08q-15.36 0-15.36-15.36v-20.48q0-15.36 15.36-15.36zM194.56 576h46.08Q256 576 256 591.36v20.48q0 15.36-15.36 15.36h-46.08q-15.36 0-15.36-15.36v-20.48q0-15.36 15.36-15.36zM194.56 704h46.08Q256 704 256 719.36v20.48q0 15.36-15.36 15.36h-46.08q-15.36 0-15.36-15.36v-20.48q0-15.36 15.36-15.36z" fill="#3DA9D3" p-id="2839"></path></svg>