<?xml version="1.0" standalone="no"?><!DOCTYPE svg PUBLIC "-//W3C//DTD SVG 1.1//EN" "http://www.w3.org/Graphics/SVG/1.1/DTD/svg11.dtd"><svg t="1598080356230" class="icon" viewBox="0 0 1024 1024" version="1.1" xmlns="http://www.w3.org/2000/svg" p-id="1980" xmlns:xlink="http://www.w3.org/1999/xlink" width="200" height="200"><defs><style type="text/css"></style></defs><path d="M956.672 513.792a476.416 476.416 0 0 0-890.368 0L512 727.296l-95.232 45.568a117.76 117.76 0 0 0 192.256 0L512 727.04z" fill="#FC6B8A" p-id="1981"></path><path d="M512 727.296l208.64-99.84a222.976 222.976 0 0 0-416.768 0z" fill="#FFFFFF" p-id="1982"></path><path d="M405.453 751.54l541.184-258.586 14.029 29.312-541.184 258.61z" fill="#FF5C7A" p-id="1983"></path><path d="M666.624 545.792l-18.688-15.36-112.64 135.424L575.488 492.8l-23.552-5.632-40.192 172.544-40.448-172.544-23.808 5.632 40.704 173.056-112.896-135.424-18.688 15.36 111.616 134.144-391.68-186.88L62.72 522.24 603.904 780.8l14.08-29.44-87.552-41.728 136.192-163.84z" fill="#F14767" p-id="1984"></path></svg>