<?xml version="1.0" standalone="no"?><!DOCTYPE svg PUBLIC "-//W3C//DTD SVG 1.1//EN" "http://www.w3.org/Graphics/SVG/1.1/DTD/svg11.dtd"><svg t="1598080372914" class="icon" viewBox="0 0 1024 1024" version="1.1" xmlns="http://www.w3.org/2000/svg" p-id="2547" xmlns:xlink="http://www.w3.org/1999/xlink" width="200" height="200"><defs><style type="text/css"></style></defs><path d="M324.557 660.316v56.832c0 30.193 24.473 54.672 54.671 54.672 30.193 0 54.672-24.474 54.672-54.672v-14.05l-109.343-42.782z m186.47 72.965c-7.961 65.72-63.933 116.639-131.799 116.639-73.328 0-132.772-59.443-132.772-132.772V629.75L129.3 583.91v0.067a39.05 39.05 0 1 1-78.1 0V411.72a39.05 39.05 0 0 1 78.1 0v0.066l499.85-195.594V192.65a39.05 39.05 0 1 1 78.106 0v610.396a39.05 39.05 0 1 1-78.105 0v-23.541L511.032 733.28z" fill="#FFD778" p-id="2548"></path><path d="M808.786 458.732H933.75a39.05 39.05 0 0 1 39.05 39.05v0.133a39.05 39.05 0 0 1-39.05 39.05H808.786a39.05 39.05 0 0 1-39.05-39.05v-0.133a39.05 39.05 0 0 1 39.05-39.05z m-3.313 130.437l108.258 62.612a39.05 39.05 0 0 1 14.284 53.3l-0.056 0.102a39.045 39.045 0 0 1-53.376 14.3l-108.257-62.618a39.05 39.05 0 0 1-14.285-53.299l0.056-0.097a39.045 39.045 0 0 1 53.376-14.3z m-39.147-250.343l108.257-62.612a39.045 39.045 0 0 1 53.376 14.305l0.051 0.092a39.05 39.05 0 0 1-14.285 53.305l-108.247 62.612a39.045 39.045 0 0 1-53.376-14.3l-0.05-0.097a39.05 39.05 0 0 1 14.279-53.3z" fill="#FB813A" p-id="2549"></path></svg>